<svg width="100" height="100" viewBox="0 0 100 100" fill="none" xmlns="http://www.w3.org/2000/svg">
<path d="M59.1007 18.5C59.1007 17.9477 59.5484 17.5 60.1007 17.5L71.1007 17.5C71.653 17.5 72.1007 17.9477 72.1007 18.5L72.1007 86.5C72.1007 87.0523 71.653 87.5 71.1007 87.5L60.1007 87.5C59.5484 87.5 59.1007 87.0523 59.1007 86.5L59.1007 49.9021C55.2281 51.762 51.298 52.1246 47.6853 51.5504C45.2725 51.1669 43.0485 50.3767 41.1007 49.4023V68.5C41.1007 69.0523 40.653 69.5 40.1007 69.5L29.1007 69.5C28.5484 69.5 28.1007 69.0523 28.1007 68.5L28.1007 19.5C28.1007 18.9477 28.5484 18.5 29.1007 18.5L40.1007 18.5C40.653 18.5 41.1007 18.9477 41.1007 19.5V39.8291C42.7759 41.3522 45.6675 43.1293 48.9411 43.6496C51.9471 44.1273 55.4776 43.5978 59.1007 40.3117V18.5Z" fill="black"/>
<path d="M86.7206 55.6818C86.3769 55.9076 86.0336 55.9831 85.5761 55.9837L74.3689 55.9975L74.3081 37.2942L85.5153 37.2804C85.9728 37.2799 86.4298 37.4295 86.7722 37.6544C87.1147 37.8794 87.2284 38.1046 87.2275 38.405L87.1804 54.9307C87.1795 55.2312 86.9498 55.5313 86.7206 55.6818Z" fill="black"/>
<path d="M26.2628 56.0587L15.0555 56.0725C14.1407 56.0737 13.3416 55.5488 13.3433 54.9479L13.3905 38.4222C13.3922 37.8213 14.1943 37.2945 15.1092 37.2934L26.3164 37.2796L26.2628 56.0587Z" fill="black"/>
</svg>
